<svg width="189" height="56" viewBox="0 0 189 56" fill="none" xmlns="http://www.w3.org/2000/svg">
<path fill-rule="evenodd" clip-rule="evenodd" d="M181.997 56H7.00258C3.14316 56 0 52.8439 0 49V7C0 3.14214 3.14316 0 7.00258 0H181.997C185.853 0 189 3.14214 189 7V49C189 52.8439 185.853 56 181.997 56Z" fill="black"/>
<path fill-rule="evenodd" clip-rule="evenodd" d="M181.997 1.1207C185.234 1.1207 187.884 3.76359 187.884 7V49C187.884 52.2364 185.252 54.8793 181.997 54.8793H7.00258C3.76554 54.8793 1.1161 52.2364 1.1161 49V7C1.1161 3.76359 3.74815 1.1207 7.00258 1.1207H181.997ZM181.997 0H7.00258C3.14316 0 0 3.15611 0 7V49C0 52.8579 3.14316 56 7.00258 56H181.997C185.853 56 189 52.8579 189 49V7C189 3.15611 185.853 0 181.997 0Z" fill="#A6A6A6"/>
<path d="M99.5657 18.5249C98.3035 18.5249 97.2396 18.0815 96.3982 17.2087C95.5637 16.3603 95.0978 15.1908 95.1187 13.9968C95.1187 12.7224 95.5498 11.6436 96.3982 10.7883C97.2361 9.91545 98.3 9.47206 99.5622 9.47206C100.81 9.47206 101.874 9.91545 102.73 10.7883C103.578 11.6716 104.009 12.7504 104.009 13.9968C103.995 15.2746 103.564 16.3534 102.73 17.2052C101.892 18.085 100.828 18.5249 99.5657 18.5249ZM62.0114 18.5249C60.777 18.5249 59.7062 18.0885 58.83 17.2262C57.9607 16.3673 57.5192 15.2815 57.5192 14.0002C57.5192 12.7189 57.9607 11.6332 58.83 10.7743C59.6888 9.91196 60.7597 9.47555 62.0114 9.47555C62.6233 9.47555 63.2178 9.59775 63.7881 9.84563C64.3478 10.0865 64.8033 10.4147 65.1406 10.8162L65.224 10.9174L64.2818 11.8461L64.1844 11.7309C63.6525 11.0955 62.9397 10.7848 61.9974 10.7848C61.156 10.7848 60.4224 11.085 59.8174 11.6785C59.209 12.2756 58.8995 13.0576 58.8995 14.0037C58.8995 14.9499 59.209 15.7319 59.8174 16.3289C60.4224 16.9224 61.156 17.2227 61.9974 17.2227C62.8945 17.2227 63.649 16.9224 64.2366 16.3289C64.5843 15.9798 64.7999 15.491 64.8763 14.8731H61.8549V13.5673H66.1732L66.1906 13.686C66.2219 13.906 66.2532 14.1329 66.2532 14.3424C66.2532 15.5469 65.8916 16.5209 65.1754 17.2401C64.3618 18.092 63.2978 18.5249 62.0114 18.5249ZM111.944 18.3399H110.612L106.533 11.7868L106.568 12.9668V18.3364H105.237V9.66059H106.756L106.798 9.72692L110.633 15.8995L110.598 14.7229V9.66059H111.944V18.3399ZM89.5591 18.3399H88.21V10.9663H85.87V9.66059H91.8955V10.9663H89.5556V18.3399H89.5591ZM84.7713 18.3399H83.4257V9.66059H84.7713V18.3399ZM77.209 18.3399H75.8634V10.9663H73.5235V9.66059H79.549V10.9663H77.209V18.3399ZM72.6716 18.3259H67.5119V9.66059H72.6716V10.9663H68.8609V13.3474H72.2996V14.6391H68.8609V17.0202H72.6716V18.3259ZM97.3856 16.3115C97.9871 16.9155 98.7173 17.2192 99.5657 17.2192C100.438 17.2192 101.151 16.9224 101.746 16.3115C102.337 15.7179 102.636 14.9394 102.636 14.0002C102.636 13.0611 102.337 12.279 101.749 11.689C101.148 11.085 100.414 10.7813 99.5691 10.7813C98.6964 10.7813 97.9837 11.078 97.3926 11.689C96.8015 12.2825 96.5025 13.0611 96.5025 14.0002C96.5025 14.9394 96.798 15.7214 97.3856 16.3115Z" fill="white"/>
<path fill-rule="evenodd" clip-rule="evenodd" d="M94.9936 30.4579C91.7079 30.4579 89.0445 32.9611 89.0445 36.414C89.0445 39.8354 91.7253 42.3701 94.9936 42.3701C98.2793 42.3701 100.943 39.8494 100.943 36.414C100.943 32.9611 98.2793 30.4579 94.9936 30.4579ZM94.9936 40.01C93.196 40.01 91.6488 38.5157 91.6488 36.4C91.6488 34.2529 93.1995 32.79 94.9936 32.79C96.7912 32.79 98.3384 34.2529 98.3384 36.4C98.3419 38.5297 96.7912 40.01 94.9936 40.01ZM82.0142 30.4579C78.7284 30.4579 76.0651 32.9611 76.0651 36.414C76.0651 39.8354 78.7458 42.3701 82.0142 42.3701C85.2999 42.3701 87.9632 39.8494 87.9632 36.414C87.9632 32.9611 85.2964 30.4579 82.0142 30.4579ZM82.0142 40.01C80.2166 40.01 78.6693 38.5157 78.6693 36.4C78.6693 34.2529 80.22 32.79 82.0142 32.79C83.8117 32.79 85.359 34.2529 85.359 36.4C85.359 38.5297 83.8117 40.01 82.0142 40.01ZM66.5695 32.2768V34.7975H72.5951C72.4108 36.2115 71.9449 37.2554 71.2321 37.9711C70.349 38.8578 68.986 39.8214 66.5834 39.8214C62.8805 39.8214 59.9842 36.8189 59.9842 33.1007C59.9842 29.3825 62.8805 26.38 66.5834 26.38C68.5827 26.38 70.0395 27.1726 71.1209 28.185L72.9011 26.3975C71.399 24.9521 69.3998 23.8454 66.5973 23.8454C61.5175 23.8454 57.2548 28 57.2548 33.0868C57.2548 38.1875 61.514 42.3282 66.5973 42.3282C69.3407 42.3282 71.399 41.4274 73.0262 39.7307C74.6847 38.0653 75.2098 35.7157 75.2098 33.8199C75.2098 33.2299 75.1646 32.6992 75.0707 32.2489H66.566C66.5695 32.2454 66.5695 32.2768 66.5695 32.2768ZM129.742 34.2389C129.245 32.9017 127.743 30.4439 124.662 30.4439C121.61 30.4439 119.072 32.8564 119.072 36.4C119.072 39.7446 121.582 42.3561 124.958 42.3561C127.67 42.3561 129.249 40.6908 129.899 39.7132L127.886 38.3586C127.218 39.3536 126.29 40.0065 124.972 40.0065C123.64 40.0065 122.708 39.399 122.09 38.2015L130.02 34.9022C130.02 34.9057 129.742 34.2389 129.742 34.2389ZM121.655 36.2289C121.592 33.9282 123.435 32.7586 124.753 32.7586C125.792 32.7586 126.658 33.2718 126.954 34.0189L121.655 36.2289ZM115.212 42H117.816V24.5017H115.212V42ZM110.935 31.781H110.842C110.254 31.0793 109.138 30.4439 107.712 30.4439C104.753 30.4439 102.027 33.0588 102.027 36.4174C102.027 39.7621 104.74 42.3456 107.712 42.3456C109.12 42.3456 110.254 41.7067 110.842 40.991H110.935V41.8464C110.935 44.1192 109.725 45.3446 107.775 45.3446C106.179 45.3446 105.188 44.1925 104.785 43.2289L102.521 44.1785C103.171 45.7496 104.906 47.6943 107.771 47.6943C110.824 47.6943 113.411 45.8893 113.411 41.4868V30.8H110.949V31.781C110.953 31.781 110.935 31.781 110.935 31.781ZM107.945 40.01C106.148 40.01 104.646 38.5017 104.646 36.4174C104.646 34.3157 106.148 32.7935 107.945 32.7935C109.725 32.7935 111.106 34.3332 111.106 36.4174C111.123 38.5017 109.729 40.01 107.945 40.01ZM141.936 24.5017H135.709V42H138.313V35.3736H141.939C144.822 35.3736 147.656 33.2753 147.656 29.9446C147.656 26.614 144.832 24.5017 141.936 24.5017ZM142.012 32.9297H138.31V26.9247H142.012C143.963 26.9247 145.065 28.5411 145.065 29.9272C145.065 31.2992 143.949 32.9297 142.012 32.9297ZM158.093 30.4264C156.202 30.4264 154.251 31.2678 153.445 33.1007L155.753 34.0643C156.251 33.1007 157.162 32.7726 158.125 32.7726C159.474 32.7726 160.837 33.5825 160.868 35.0279V35.213C160.402 34.9476 159.38 34.5426 158.156 34.5426C155.663 34.5426 153.135 35.9112 153.135 38.4773C153.135 40.8269 155.18 42.3352 157.457 42.3352C159.206 42.3352 160.169 41.5426 160.771 40.6244H160.865V41.979H163.375V35.2758C163.375 32.1546 161.066 30.4264 158.093 30.4264ZM157.767 40.01C156.915 40.01 155.722 39.591 155.722 38.5157C155.722 37.1611 157.21 36.6479 158.479 36.6479C159.627 36.6479 160.169 36.8958 160.851 37.2379C160.663 38.809 159.342 39.996 157.767 40.01ZM172.533 30.8L169.543 38.39H169.449L166.351 30.8H163.549L168.197 41.41L165.548 47.3067H168.26L175.412 30.8H172.533ZM149.092 42H151.696V24.5017H149.092V42Z" fill="white"/>
<path fill-rule="evenodd" clip-rule="evenodd" d="M14.5474 10.5473C14.1441 10.9837 13.9111 11.6505 13.9111 12.5233V43.4804C13.9111 44.3533 14.1441 45.0201 14.5613 45.439L14.6691 45.5333L31.9426 28.1887V27.8011L14.6552 10.453L14.5474 10.5473Z" fill="url(#paint0_linear_4814_6233)"/>
<path fill-rule="evenodd" clip-rule="evenodd" d="M37.69 33.9875L31.9287 28.2025V27.7975L37.69 22.0125L37.8152 22.0893L44.6301 25.9786C46.5807 27.0818 46.5807 28.9043 44.6301 30.0215L37.8152 33.9107L37.69 33.9875Z" fill="url(#paint1_linear_4814_6233)"/>
<path fill-rule="evenodd" clip-rule="evenodd" d="M37.8155 33.9107L31.929 28L14.5477 45.4529C15.184 46.1372 16.2514 46.214 17.444 45.5471L37.8155 33.9107Z" fill="url(#paint2_linear_4814_6233)"/>
<path fill-rule="evenodd" clip-rule="evenodd" d="M37.8155 22.0893L17.444 10.4703C16.2514 9.78604 15.1805 9.8803 14.5477 10.5646L31.929 28L37.8155 22.0893Z" fill="url(#paint3_linear_4814_6233)"/>
<path opacity="0.2" fill-rule="evenodd" clip-rule="evenodd" d="M37.6901 33.7851L17.4576 45.3272C16.3276 45.9801 15.3193 45.9347 14.6691 45.3412L14.5613 45.4494L14.6691 45.5437C15.3193 46.1337 16.3276 46.1826 17.4576 45.5297L37.8291 33.9108L37.6901 33.7851Z" fill="black"/>
<path opacity="0.12" fill-rule="evenodd" clip-rule="evenodd" d="M44.6301 29.819L37.6727 33.785L37.7979 33.9107L44.6127 30.0214C45.5897 29.4628 46.0696 28.7297 46.0696 28C46.0104 28.6703 45.5132 29.3057 44.6301 29.819Z" fill="black"/>
<path opacity="0.25" fill-rule="evenodd" clip-rule="evenodd" d="M17.4437 10.673L44.63 26.1813C45.5131 26.6805 46.0103 27.3334 46.0868 28.0002C46.0868 27.2705 45.607 26.5374 44.63 25.9788L17.4437 10.4705C15.4931 9.34984 13.9111 10.2855 13.9111 12.5234V12.7259C13.9111 10.4845 15.4931 9.5663 17.4437 10.673Z" fill="white"/>
<defs>
<linearGradient id="paint0_linear_4814_6233" x1="30.3932" y1="12.1893" x2="2.70902" y2="19.5356" gradientUnits="userSpaceOnUse">
<stop stop-color="#00A0FF"/>
<stop offset="0.00657" stop-color="#00A1FF"/>
<stop offset="0.2601" stop-color="#00BEFF"/>
<stop offset="0.5122" stop-color="#00D2FF"/>
<stop offset="0.7604" stop-color="#00DFFF"/>
<stop offset="1" stop-color="#00E3FF"/>
</linearGradient>
<linearGradient id="paint1_linear_4814_6233" x1="47.1738" y1="28.0001" x2="13.437" y2="28.0001" gradientUnits="userSpaceOnUse">
<stop stop-color="#FFE000"/>
<stop offset="0.4087" stop-color="#FFBD00"/>
<stop offset="0.7754" stop-color="#FFA500"/>
<stop offset="1" stop-color="#FF9C00"/>
</linearGradient>
<linearGradient id="paint2_linear_4814_6233" x1="34.6146" y1="31.2163" x2="12.2668" y2="68.6753" gradientUnits="userSpaceOnUse">
<stop stop-color="#FF3A44"/>
<stop offset="1" stop-color="#C31162"/>
</linearGradient>
<linearGradient id="paint3_linear_4814_6233" x1="10.1709" y1="0.250313" x2="20.1413" y2="16.9802" gradientUnits="userSpaceOnUse">
<stop stop-color="#32A071"/>
<stop offset="0.0685" stop-color="#2DA771"/>
<stop offset="0.4762" stop-color="#15CF74"/>
<stop offset="0.8009" stop-color="#06E775"/>
<stop offset="1" stop-color="#00F076"/>
</linearGradient>
</defs>
</svg>
